<?xml version="1.0" encoding="UTF-8" standalone="no"?>
<!-- Created with Inkscape (http://www.inkscape.org/) -->

<svg
   xmlns:dc="http://purl.org/dc/elements/1.1/"
   xmlns:cc="http://creativecommons.org/ns#"
   xmlns:rdf="http://www.w3.org/1999/02/22-rdf-syntax-ns#"
   xmlns:svg="http://www.w3.org/2000/svg"
   xmlns="http://www.w3.org/2000/svg"
   xmlns:sodipodi="http://sodipodi.sourceforge.net/DTD/sodipodi-0.dtd"
   xmlns:inkscape="http://www.inkscape.org/namespaces/inkscape"
   id="svg3270"
   sodipodi:docname="icon.svg"
   viewBox="0 0 335.01 227.63"
   version="1.1"
   inkscape:version="0.92.1 r15371"
   width="357.34402"
   height="242.80534"
   inkscape:export-filename="/home/ryan/stuff/zdatafs/icon/icon-main.png"
   inkscape:export-xdpi="96"
   inkscape:export-ydpi="96">
  <defs
     id="defs3272">
    <clipPath
       clipPathUnits="userSpaceOnUse"
       id="clipPath4525">
      <g
         transform="translate(6.0980994e-8,2.2412565e-6)"
         inkscape:label="Clip"
         id="use4527">
        <text
           transform="skewX(-2.1944915)"
           id="text4536"
           y="553.43182"
           x="133.40938"
           style="font-style:normal;font-variant:normal;font-weight:normal;font-stretch:normal;font-size:37.49999619px;line-height:1.25;font-family:'Roboto Mono';-inkscape-font-specification:'Roboto Mono, Normal';font-variant-ligatures:normal;font-variant-caps:normal;font-variant-numeric:normal;font-feature-settings:normal;text-align:start;letter-spacing:0px;word-spacing:0px;writing-mode:lr-tb;text-anchor:start;fill:#000078;fill-opacity:1;stroke:none;stroke-width:0.93749994"
           xml:space="preserve"><tspan
             y="553.43182"
             x="133.40938"
             id="tspan4534"
             sodipodi:role="line">z</tspan></text>
        <text
           xml:space="preserve"
           style="font-style:normal;font-variant:normal;font-weight:normal;font-stretch:normal;font-size:37.49999619px;line-height:1.25;font-family:'Roboto Mono';-inkscape-font-specification:'Roboto Mono, Normal';font-variant-ligatures:normal;font-variant-caps:normal;font-variant-numeric:normal;font-feature-settings:normal;text-align:start;letter-spacing:0px;word-spacing:0px;writing-mode:lr-tb;text-anchor:start;fill:#001e00;fill-opacity:1;stroke:none;stroke-width:0.93749994"
           x="126.19385"
           y="560.67322"
           id="text4540"
           transform="matrix(0.99847663,-0.05517611,0.01691464,1.000591,0,0)"><tspan
             y="560.67322"
             x="126.19385"
             id="tspan4538"
             sodipodi:role="line">d</tspan></text>
      </g>
    </clipPath>
    <clipPath
       clipPathUnits="userSpaceOnUse"
       id="clipPath4556">
      <g
         transform="translate(-8.1517359e-7,-1.1276207e-6)"
         inkscape:label="Clip"
         id="use4558">
        <text
           xml:space="preserve"
           style="font-style:normal;font-variant:normal;font-weight:normal;font-stretch:normal;font-size:69.20530701px;line-height:1.25;font-family:'Roboto Mono';-inkscape-font-specification:'Roboto Mono, Normal';font-variant-ligatures:normal;font-variant-caps:normal;font-variant-numeric:normal;font-feature-settings:normal;text-align:start;letter-spacing:0px;word-spacing:0px;writing-mode:lr-tb;text-anchor:start;fill:#000078;fill-opacity:1;stroke:none;stroke-width:1.73013282"
           x="350.76636"
           y="568.5705"
           id="text4567"
           transform="skewX(-2.1944914)"><tspan
             style="stroke-width:1.73013282"
             sodipodi:role="line"
             id="tspan4565"
             x="350.76636"
             y="568.5705">z</tspan></text>
        <text
           transform="matrix(0.99847662,-0.05517611,0.01691464,1.000591,0,0)"
           id="text4571"
           y="589.04041"
           x="356.90277"
           style="font-style:normal;font-variant:normal;font-weight:normal;font-stretch:normal;font-size:69.2049942px;line-height:1.25;font-family:'Roboto Mono';-inkscape-font-specification:'Roboto Mono, Normal';font-variant-ligatures:normal;font-variant-caps:normal;font-variant-numeric:normal;font-feature-settings:normal;text-align:start;letter-spacing:0px;word-spacing:0px;writing-mode:lr-tb;text-anchor:start;fill:#001e00;fill-opacity:1;stroke:none;stroke-width:1.73013282"
           xml:space="preserve"><tspan
             style="font-style:normal;font-variant:normal;font-weight:normal;font-stretch:normal;font-size:69.2049942px;font-family:'Roboto Mono';-inkscape-font-specification:'Roboto Mono, Normal';font-variant-ligatures:normal;font-variant-caps:normal;font-variant-numeric:normal;font-feature-settings:normal;text-align:start;writing-mode:lr-tb;text-anchor:start;stroke-width:1.73013282"
             sodipodi:role="line"
             id="tspan4569"
             x="356.90277"
             y="589.04041">d</tspan></text>
      </g>
    </clipPath>
    <clipPath
       clipPathUnits="userSpaceOnUse"
       id="clipPath4587">
      <g
         inkscape:label="Clip"
         id="use4589">
        <text
           transform="skewX(-2.1944913)"
           id="text4598"
           y="571.62854"
           x="339.29257"
           style="font-style:normal;font-variant:normal;font-weight:normal;font-stretch:normal;font-size:100.24667358px;line-height:1.25;font-family:'Roboto Mono';-inkscape-font-specification:'Roboto Mono, Normal';font-variant-ligatures:normal;font-variant-caps:normal;font-variant-numeric:normal;font-feature-settings:normal;text-align:start;letter-spacing:0px;word-spacing:0px;writing-mode:lr-tb;text-anchor:start;fill:#000078;fill-opacity:1;stroke:none;stroke-width:2.50616717"
           xml:space="preserve"><tspan
             y="571.62854"
             x="339.29257"
             id="tspan4596"
             sodipodi:role="line"
             style="stroke-width:2.50616717">z</tspan></text>
        <text
           xml:space="preserve"
           style="font-style:normal;font-variant:normal;font-weight:normal;font-stretch:normal;font-size:100.24622345px;line-height:1.25;font-family:'Roboto Mono';-inkscape-font-specification:'Roboto Mono, Normal';font-variant-ligatures:normal;font-variant-caps:normal;font-variant-numeric:normal;font-feature-settings:normal;text-align:start;letter-spacing:0px;word-spacing:0px;writing-mode:lr-tb;text-anchor:start;fill:#001e00;fill-opacity:1;stroke:none;stroke-width:2.50616717"
           x="362.0047"
           y="592.88257"
           id="text4602"
           transform="matrix(0.99847661,-0.05517611,0.01691464,1.000591,0,0)"><tspan
             y="592.88257"
             x="362.0047"
             id="tspan4600"
             sodipodi:role="line"
             style="font-style:normal;font-variant:normal;font-weight:normal;font-stretch:normal;font-size:100.24622345px;font-family:'Roboto Mono';-inkscape-font-specification:'Roboto Mono, Normal';font-variant-ligatures:normal;font-variant-caps:normal;font-variant-numeric:normal;font-feature-settings:normal;text-align:start;writing-mode:lr-tb;text-anchor:start;stroke-width:2.50616717">d</tspan></text>
      </g>
    </clipPath>
    <clipPath
       clipPathUnits="userSpaceOnUse"
       id="clipPath5073">
      <g
         id="g5093"
         transform="translate(2.0181504e-6,-39.375)">
        <g
           transform="matrix(0.35910065,0,0,0.34035751,365.8722,464.44147)"
           inkscape:export-filename="/home/oak/Downloads/path5081.png"
           inkscape:export-xdpi="90"
           inkscape:export-ydpi="90"
           id="g5081">
          <path
             d="m 299.28,-12.179 -1.1563,0.6875 -44.844,26.625 h -99.906 -0.0312 l -78.187,0.4375 c -2.1815,0.0122 -4.8302,0.52194 -6.75,2.5625 -1.9198,2.04056 -2.3125,4.5948 -2.3125,6.8438 v 16.844 4.8125 h 0.0625 c -0.0425,0.38707 -0.0625,0.79041 -0.0625,1.1875 v 239 c 0,6.0075 4.9925,11 11,11 h 371 c 6.0075,0 11,-4.9925 11,-11 v -239 c 0,-6.0075 -4.9925,-11 -11,-11 h -19 v -38.188 c 0,-5.701 -4.4862,-10.812 -10.344,-10.812 h -118.16 -1.3125 z m 2.625,9.625 h 116.84 c 0.2769,0 0.7188,0.23022 0.7188,1.1875 v 38.188 h -342.37 c -0.46353,0 -0.92538,0.0361 -1.375,0.0937 v -11.719 l 77.656,-0.4375 h 0.0312 101.19 1.3125 l 1.1562,-0.6875 44.844,-26.625 z M 77.095,46.821 h 371 c 0.6405,0 1,0.35951 1,1 v 239 c 0,0.64049 -0.3595,1 -1,1 h -371 c -0.64049,0 -1,-0.35951 -1,-1 v -239 c 0,-0.64049 0.35951,-1 1,-1 z"
             inkscape:connector-curvature="0"
             style="color:#000000;text-indent:0;text-transform:none;fill:#ffffff"
             id="path5075" />
          <path
             d="m 299.28,-12.179 -1.1563,0.6875 -44.844,26.625 h -99.906 -0.0312 l -78.187,0.4375 c -2.1815,0.0122 -4.8302,0.52194 -6.75,2.5625 -1.9198,2.04056 -2.3125,4.5948 -2.3125,6.8438 v 16.844 4.8125 h 0.0625 c -0.0425,0.38707 -0.0625,0.79041 -0.0625,1.1875 v 239 c 0,6.0075 4.9925,11 11,11 h 371 c 6.0075,0 11,-4.9925 11,-11 v -239 c 0,-6.0075 -4.9925,-11 -11,-11 h -19 v -38.188 c 0,-5.701 -4.4862,-10.812 -10.344,-10.812 h -118.16 -1.3125 z"
             inkscape:connector-curvature="0"
             style="color:#000000;text-indent:0;text-transform:none;fill:#ffffff;fill-opacity:0.39216003"
             id="path5077" />
          <path
             d="m 302.11,-2.55 h 116.84 c 0.2769,0 0.7188,0.23022 0.7188,1.1875 v 38.188 h -342.38 c -0.46353,0 -0.92538,0.0361 -1.375,0.0937 v -11.719 l 77.656,-0.4375 h 0.0312 101.19 1.3125 l 1.1562,-0.6875 44.844,-26.625 z"
             inkscape:connector-curvature="0"
             style="color:#000000;text-indent:0;text-transform:none;fill:#ffffff;fill-opacity:0.39216003"
             id="path5079" />
        </g>
        <g
           transform="matrix(0.83518635,0,0,0.83518635,145.47564,74.113845)"
           id="g5091">
          <text
             transform="skewX(-2.1944913)"
             id="text5085"
             y="571.62854"
             x="339.29257"
             style="font-style:normal;font-variant:normal;font-weight:normal;font-stretch:normal;font-size:100.24667358px;line-height:1.25;font-family:'Roboto Mono';-inkscape-font-specification:'Roboto Mono, Normal';font-variant-ligatures:normal;font-variant-caps:normal;font-variant-numeric:normal;font-feature-settings:normal;text-align:start;letter-spacing:0px;word-spacing:0px;writing-mode:lr-tb;text-anchor:start;fill:#000078;fill-opacity:1;stroke:none;stroke-width:2.50616717"
             xml:space="preserve"><tspan
               y="571.62854"
               x="339.29257"
               id="tspan5083"
               sodipodi:role="line"
               style="stroke-width:2.50616717">z</tspan></text>
          <text
             xml:space="preserve"
             style="font-style:normal;font-variant:normal;font-weight:normal;font-stretch:normal;font-size:100.24622345px;line-height:1.25;font-family:'Roboto Mono';-inkscape-font-specification:'Roboto Mono, Normal';font-variant-ligatures:normal;font-variant-caps:normal;font-variant-numeric:normal;font-feature-settings:normal;text-align:start;letter-spacing:0px;word-spacing:0px;writing-mode:lr-tb;text-anchor:start;fill:#001e00;fill-opacity:1;stroke:none;stroke-width:2.50616717"
             x="362.0047"
             y="592.88257"
             id="text5089"
             transform="matrix(0.99847661,-0.05517611,0.01691464,1.000591,0,0)"><tspan
               y="592.88257"
               x="362.0047"
               id="tspan5087"
               sodipodi:role="line"
               style="font-style:normal;font-variant:normal;font-weight:normal;font-stretch:normal;font-size:100.24622345px;font-family:'Roboto Mono';-inkscape-font-specification:'Roboto Mono, Normal';font-variant-ligatures:normal;font-variant-caps:normal;font-variant-numeric:normal;font-feature-settings:normal;text-align:start;writing-mode:lr-tb;text-anchor:start;stroke-width:2.50616717">d</tspan></text>
        </g>
      </g>
    </clipPath>
  </defs>
  <sodipodi:namedview
     id="base"
     bordercolor="#666666"
     inkscape:pageshadow="2"
     inkscape:window-y="0"
     fit-margin-left="0"
     pagecolor="#ffffff"
     fit-margin-top="0"
     inkscape:window-maximized="1"
     inkscape:zoom="2.385933"
     inkscape:window-x="0"
     inkscape:window-height="1051"
     showgrid="false"
     borderopacity="1.0"
     inkscape:current-layer="layer1"
     inkscape:cx="165.89477"
     inkscape:cy="148.67954"
     fit-margin-right="0"
     fit-margin-bottom="0"
     inkscape:window-width="1920"
     inkscape:pageopacity="0.0"
     inkscape:document-units="px" />
  <g
     id="layer1"
     inkscape:label="Camada 1"
     inkscape:groupmode="layer"
     transform="translate(-204.54,-412.37)">
    <flowRoot
       xml:space="preserve"
       id="flowRoot4491"
       style="font-style:normal;font-weight:normal;font-size:40px;line-height:1.25;font-family:sans-serif;letter-spacing:0px;word-spacing:0px;fill:#000000;fill-opacity:1;stroke:none"
       transform="matrix(0.93749995,0,0,0.93749995,204.54,412.37)"><flowRegion
         id="flowRegion4493"><rect
           id="rect4495"
           width="53.228653"
           height="42.331448"
           x="123.22224"
           y="126.28908" /></flowRegion><flowPara
         id="flowPara4497">Zzz</flowPara></flowRoot>    <g
       id="icon-full"
       inkscape:export-xdpi="90"
       inkscape:export-ydpi="90">
      <rect
         inkscape:export-ydpi="96"
         inkscape:export-xdpi="96"
         x="224.6286"
         y="419.59506"
         width="144.33224"
         height="107.39401"
         style="fill:#03384d;fill-opacity:1;stroke-width:0.45084581"
         id="rect4648" />
      <g
         transform="matrix(0.35433,0,0,0.33431,204,425.93)"
         inkscape:export-filename="/home/oak/Downloads/path5081.png"
         inkscape:export-xdpi="90"
         inkscape:export-ydpi="90"
         id="g5387">
        <path
           d="m 299.28,-12.179 -1.1563,0.6875 -44.844,26.625 h -99.906 -0.0312 l -78.187,0.4375 c -2.1815,0.0122 -4.8302,0.52194 -6.75,2.5625 -1.9198,2.04056 -2.3125,4.5948 -2.3125,6.8438 v 16.844 4.8125 h 0.0625 c -0.0425,0.38707 -0.0625,0.79041 -0.0625,1.1875 v 239 c 0,6.0075 4.9925,11 11,11 h 371 c 6.0075,0 11,-4.9925 11,-11 v -239 c 0,-6.0075 -4.9925,-11 -11,-11 h -19 v -38.188 c 0,-5.701 -4.4862,-10.812 -10.344,-10.812 h -118.16 -1.3125 z m 2.625,9.625 h 116.84 c 0.2769,0 0.7188,0.23022 0.7188,1.1875 v 38.188 h -342.37 c -0.46353,0 -0.92538,0.0361 -1.375,0.0937 v -11.719 l 77.656,-0.4375 h 0.0312 101.19 1.3125 l 1.1562,-0.6875 44.844,-26.625 z M 77.095,46.821 h 371 c 0.6405,0 1,0.35951 1,1 v 239 c 0,0.64049 -0.3595,1 -1,1 h -371 c -0.64049,0 -1,-0.35951 -1,-1 v -239 c 0,-0.64049 0.35951,-1 1,-1 z"
           inkscape:connector-curvature="0"
           style="color:#000000;text-indent:0;text-transform:none;fill:#ffffff"
           id="path5389" />
        <path
           d="m 299.28,-12.179 -1.1563,0.6875 -44.844,26.625 h -99.906 -0.0312 l -78.187,0.4375 c -2.1815,0.0122 -4.8302,0.52194 -6.75,2.5625 -1.9198,2.04056 -2.3125,4.5948 -2.3125,6.8438 v 16.844 4.8125 h 0.0625 c -0.0425,0.38707 -0.0625,0.79041 -0.0625,1.1875 v 239 c 0,6.0075 4.9925,11 11,11 h 371 c 6.0075,0 11,-4.9925 11,-11 v -239 c 0,-6.0075 -4.9925,-11 -11,-11 h -19 v -38.188 c 0,-5.701 -4.4862,-10.812 -10.344,-10.812 h -118.16 -1.3125 z"
           inkscape:connector-curvature="0"
           style="color:#000000;text-indent:0;text-transform:none;fill:#ffffff;fill-opacity:0.39216003"
           id="path5391-21" />
        <path
           d="m 302.11,-2.55 h 116.84 c 0.2769,0 0.7188,0.23022 0.7188,1.1875 v 38.188 h -342.38 c -0.46353,0 -0.92538,0.0361 -1.375,0.0937 v -11.719 l 77.656,-0.4375 h 0.0312 101.19 1.3125 l 1.1562,-0.6875 44.844,-26.625 z"
           inkscape:connector-curvature="0"
           style="color:#000000;text-indent:0;text-transform:none;fill:#ffffff;fill-opacity:0.39216003"
           id="path5393" />
      </g>
      <g
         transform="matrix(0.83518635,0,0,0.83518635,-17.649364,34.738846)"
         id="g4517">
        <text
           transform="skewX(-2.1944913)"
           id="text4501"
           y="571.62854"
           x="339.29257"
           style="font-style:normal;font-variant:normal;font-weight:normal;font-stretch:normal;font-size:100.24667358px;line-height:1.25;font-family:'Roboto Mono';-inkscape-font-specification:'Roboto Mono, Normal';font-variant-ligatures:normal;font-variant-caps:normal;font-variant-numeric:normal;font-feature-settings:normal;text-align:start;letter-spacing:0px;word-spacing:0px;writing-mode:lr-tb;text-anchor:start;fill:#000078;fill-opacity:1;stroke:none;stroke-width:2.50616717"
           xml:space="preserve"><tspan
             y="571.62854"
             x="339.29257"
             id="tspan4503"
             sodipodi:role="line"
             style="stroke-width:2.50616717">z</tspan></text>
        <text
           xml:space="preserve"
           style="font-style:normal;font-variant:normal;font-weight:normal;font-stretch:normal;font-size:100.24622345px;line-height:1.25;font-family:'Roboto Mono';-inkscape-font-specification:'Roboto Mono, Normal';font-variant-ligatures:normal;font-variant-caps:normal;font-variant-numeric:normal;font-feature-settings:normal;text-align:start;letter-spacing:0px;word-spacing:0px;writing-mode:lr-tb;text-anchor:start;fill:#001e00;fill-opacity:1;stroke:none;stroke-width:2.50616717"
           x="362.0047"
           y="592.88257"
           id="text4507"
           transform="matrix(0.99847661,-0.05517611,0.01691464,1.000591,0,0)"><tspan
             y="592.88257"
             x="362.0047"
             id="tspan4509"
             sodipodi:role="line"
             style="font-style:normal;font-variant:normal;font-weight:normal;font-stretch:normal;font-size:100.24622345px;font-family:'Roboto Mono';-inkscape-font-specification:'Roboto Mono, Normal';font-variant-ligatures:normal;font-variant-caps:normal;font-variant-numeric:normal;font-feature-settings:normal;text-align:start;writing-mode:lr-tb;text-anchor:start;stroke-width:2.50616717">d</tspan></text>
      </g>
    </g>
    <g
       id="icon-transparent-fg"
       inkscape:export-xdpi="90"
       inkscape:export-ydpi="90"
       transform="translate(3.7499998,59.999999)">
      <g
         id="g4520"
         inkscape:export-ydpi="90"
         inkscape:export-xdpi="90"
         inkscape:export-filename="/home/oak/Downloads/path5081.png"
         transform="matrix(0.35433,0,0,0.33431,372.75,478.43)">
        <path
           id="path4514"
           style="color:#000000;text-indent:0;text-transform:none;fill:#ffffff"
           inkscape:connector-curvature="0"
           d="m 299.28,-12.179 -1.1563,0.6875 -44.844,26.625 h -99.906 -0.0312 l -78.187,0.4375 c -2.1815,0.0122 -4.8302,0.52194 -6.75,2.5625 -1.9198,2.04056 -2.3125,4.5948 -2.3125,6.8438 v 16.844 4.8125 h 0.0625 c -0.0425,0.38707 -0.0625,0.79041 -0.0625,1.1875 v 239 c 0,6.0075 4.9925,11 11,11 h 371 c 6.0075,0 11,-4.9925 11,-11 v -239 c 0,-6.0075 -4.9925,-11 -11,-11 h -19 v -38.188 c 0,-5.701 -4.4862,-10.812 -10.344,-10.812 h -118.16 -1.3125 z m 2.625,9.625 h 116.84 c 0.2769,0 0.7188,0.23022 0.7188,1.1875 v 38.188 h -342.37 c -0.46353,0 -0.92538,0.0361 -1.375,0.0937 v -11.719 l 77.656,-0.4375 h 0.0312 101.19 1.3125 l 1.1562,-0.6875 44.844,-26.625 z M 77.095,46.821 h 371 c 0.6405,0 1,0.35951 1,1 v 239 c 0,0.64049 -0.3595,1 -1,1 h -371 c -0.64049,0 -1,-0.35951 -1,-1 v -239 c 0,-0.64049 0.35951,-1 1,-1 z" />
        <path
           id="path4516"
           style="color:#000000;text-indent:0;text-transform:none;fill:#ffffff;fill-opacity:0.39216003"
           inkscape:connector-curvature="0"
           d="m 299.28,-12.179 -1.1563,0.6875 -44.844,26.625 h -99.906 -0.0312 l -78.187,0.4375 c -2.1815,0.0122 -4.8302,0.52194 -6.75,2.5625 -1.9198,2.04056 -2.3125,4.5948 -2.3125,6.8438 v 16.844 4.8125 h 0.0625 c -0.0425,0.38707 -0.0625,0.79041 -0.0625,1.1875 v 239 c 0,6.0075 4.9925,11 11,11 h 371 c 6.0075,0 11,-4.9925 11,-11 v -239 c 0,-6.0075 -4.9925,-11 -11,-11 h -19 v -38.188 c 0,-5.701 -4.4862,-10.812 -10.344,-10.812 h -118.16 -1.3125 z" />
        <path
           id="path4518"
           style="color:#000000;text-indent:0;text-transform:none;fill:#ffffff;fill-opacity:0.39216003"
           inkscape:connector-curvature="0"
           d="m 302.11,-2.55 h 116.84 c 0.2769,0 0.7188,0.23022 0.7188,1.1875 v 38.188 h -342.38 c -0.46353,0 -0.92538,0.0361 -1.375,0.0937 v -11.719 l 77.656,-0.4375 h 0.0312 101.19 1.3125 l 1.1562,-0.6875 44.844,-26.625 z" />
      </g>
      <g
         id="g4530"
         transform="matrix(0.83518635,0,0,0.83518635,151.10063,87.238846)">
        <text
           xml:space="preserve"
           style="font-style:normal;font-variant:normal;font-weight:normal;font-stretch:normal;font-size:100.24667358px;line-height:1.25;font-family:'Roboto Mono';-inkscape-font-specification:'Roboto Mono, Normal';font-variant-ligatures:normal;font-variant-caps:normal;font-variant-numeric:normal;font-feature-settings:normal;text-align:start;letter-spacing:0px;word-spacing:0px;writing-mode:lr-tb;text-anchor:start;fill:#000078;fill-opacity:1;stroke:none;stroke-width:2.50616717"
           x="339.29257"
           y="571.62854"
           id="text4524"
           transform="skewX(-2.1944913)"><tspan
             style="stroke-width:2.50616717"
             sodipodi:role="line"
             id="tspan4522"
             x="339.29257"
             y="571.62854">z</tspan></text>
        <text
           transform="matrix(0.99847661,-0.05517611,0.01691464,1.000591,0,0)"
           id="text4528"
           y="592.88257"
           x="362.0047"
           style="font-style:normal;font-variant:normal;font-weight:normal;font-stretch:normal;font-size:100.24622345px;line-height:1.25;font-family:'Roboto Mono';-inkscape-font-specification:'Roboto Mono, Normal';font-variant-ligatures:normal;font-variant-caps:normal;font-variant-numeric:normal;font-feature-settings:normal;text-align:start;letter-spacing:0px;word-spacing:0px;writing-mode:lr-tb;text-anchor:start;fill:#001e00;fill-opacity:1;stroke:none;stroke-width:2.50616717"
           xml:space="preserve"><tspan
             style="font-style:normal;font-variant:normal;font-weight:normal;font-stretch:normal;font-size:100.24622345px;font-family:'Roboto Mono';-inkscape-font-specification:'Roboto Mono, Normal';font-variant-ligatures:normal;font-variant-caps:normal;font-variant-numeric:normal;font-feature-settings:normal;text-align:start;writing-mode:lr-tb;text-anchor:start;stroke-width:2.50616717"
             sodipodi:role="line"
             id="tspan4526"
             x="362.0047"
             y="592.88257">d</tspan></text>
      </g>
    </g>
    <rect
       inkscape:export-ydpi="90"
       inkscape:export-xdpi="90"
       x="224.6286"
       y="530.22003"
       width="144.33224"
       height="107.39401"
       style="fill:#03384d;fill-opacity:1;stroke-width:0.45084581"
       id="icon-bg" />
    <g
       id="icon-main"
       clip-path="url(#clipPath5073)"
       inkscape:export-xdpi="90"
       inkscape:export-ydpi="90">
      <rect
         id="rect4557"
         style="fill:#03384d;fill-opacity:1;stroke-width:0.48294494"
         height="118.396"
         width="150.22617"
         y="413.30823"
         x="386.18188"
         inkscape:export-xdpi="96"
         inkscape:export-ydpi="96" />
      <g
         id="g4704">
        <g
           transform="matrix(0.35433,0,0,0.33431,367.125,425.93)"
           inkscape:export-filename="/home/oak/Downloads/path5081.png"
           inkscape:export-xdpi="90"
           inkscape:export-ydpi="90"
           id="g4565">
          <path
             d="m 299.28,-12.179 -1.1563,0.6875 -44.844,26.625 h -99.906 -0.0312 l -78.187,0.4375 c -2.1815,0.0122 -4.8302,0.52194 -6.75,2.5625 -1.9198,2.04056 -2.3125,4.5948 -2.3125,6.8438 v 16.844 4.8125 h 0.0625 c -0.0425,0.38707 -0.0625,0.79041 -0.0625,1.1875 v 239 c 0,6.0075 4.9925,11 11,11 h 371 c 6.0075,0 11,-4.9925 11,-11 v -239 c 0,-6.0075 -4.9925,-11 -11,-11 h -19 v -38.188 c 0,-5.701 -4.4862,-10.812 -10.344,-10.812 h -118.16 -1.3125 z m 2.625,9.625 h 116.84 c 0.2769,0 0.7188,0.23022 0.7188,1.1875 v 38.188 h -342.37 c -0.46353,0 -0.92538,0.0361 -1.375,0.0937 v -11.719 l 77.656,-0.4375 h 0.0312 101.19 1.3125 l 1.1562,-0.6875 44.844,-26.625 z M 77.095,46.821 h 371 c 0.6405,0 1,0.35951 1,1 v 239 c 0,0.64049 -0.3595,1 -1,1 h -371 c -0.64049,0 -1,-0.35951 -1,-1 v -239 c 0,-0.64049 0.35951,-1 1,-1 z"
             inkscape:connector-curvature="0"
             style="color:#000000;text-indent:0;text-transform:none;fill:#ffffff"
             id="path4559" />
          <path
             d="m 299.28,-12.179 -1.1563,0.6875 -44.844,26.625 h -99.906 -0.0312 l -78.187,0.4375 c -2.1815,0.0122 -4.8302,0.52194 -6.75,2.5625 -1.9198,2.04056 -2.3125,4.5948 -2.3125,6.8438 v 16.844 4.8125 h 0.0625 c -0.0425,0.38707 -0.0625,0.79041 -0.0625,1.1875 v 239 c 0,6.0075 4.9925,11 11,11 h 371 c 6.0075,0 11,-4.9925 11,-11 v -239 c 0,-6.0075 -4.9925,-11 -11,-11 h -19 v -38.188 c 0,-5.701 -4.4862,-10.812 -10.344,-10.812 h -118.16 -1.3125 z"
             inkscape:connector-curvature="0"
             style="color:#000000;text-indent:0;text-transform:none;fill:#ffffff;fill-opacity:0.39216003"
             id="path4561" />
          <path
             d="m 302.11,-2.55 h 116.84 c 0.2769,0 0.7188,0.23022 0.7188,1.1875 v 38.188 h -342.38 c -0.46353,0 -0.92538,0.0361 -1.375,0.0937 v -11.719 l 77.656,-0.4375 h 0.0312 101.19 1.3125 l 1.1562,-0.6875 44.844,-26.625 z"
             inkscape:connector-curvature="0"
             style="color:#000000;text-indent:0;text-transform:none;fill:#ffffff;fill-opacity:0.39216003"
             id="path4563" />
        </g>
        <g
           transform="matrix(0.83518635,0,0,0.83518635,145.47564,34.738846)"
           id="g4575">
          <text
             transform="skewX(-2.1944913)"
             id="text4569"
             y="571.62854"
             x="339.29257"
             style="font-style:normal;font-variant:normal;font-weight:normal;font-stretch:normal;font-size:100.24667358px;line-height:1.25;font-family:'Roboto Mono';-inkscape-font-specification:'Roboto Mono, Normal';font-variant-ligatures:normal;font-variant-caps:normal;font-variant-numeric:normal;font-feature-settings:normal;text-align:start;letter-spacing:0px;word-spacing:0px;writing-mode:lr-tb;text-anchor:start;fill:#000078;fill-opacity:1;stroke:none;stroke-width:2.50616717"
             xml:space="preserve"><tspan
               y="571.62854"
               x="339.29257"
               id="tspan4567"
               sodipodi:role="line"
               style="stroke-width:2.50616717">z</tspan></text>
          <text
             xml:space="preserve"
             style="font-style:normal;font-variant:normal;font-weight:normal;font-stretch:normal;font-size:100.24622345px;line-height:1.25;font-family:'Roboto Mono';-inkscape-font-specification:'Roboto Mono, Normal';font-variant-ligatures:normal;font-variant-caps:normal;font-variant-numeric:normal;font-feature-settings:normal;text-align:start;letter-spacing:0px;word-spacing:0px;writing-mode:lr-tb;text-anchor:start;fill:#001e00;fill-opacity:1;stroke:none;stroke-width:2.50616717"
             x="362.0047"
             y="592.88257"
             id="text4573"
             transform="matrix(0.99847661,-0.05517611,0.01691464,1.000591,0,0)"><tspan
               y="592.88257"
               x="362.0047"
               id="tspan4571"
               sodipodi:role="line"
               style="font-style:normal;font-variant:normal;font-weight:normal;font-stretch:normal;font-size:100.24622345px;font-family:'Roboto Mono';-inkscape-font-specification:'Roboto Mono, Normal';font-variant-ligatures:normal;font-variant-caps:normal;font-variant-numeric:normal;font-feature-settings:normal;text-align:start;writing-mode:lr-tb;text-anchor:start;stroke-width:2.50616717">d</tspan></text>
        </g>
      </g>
    </g>
  </g>
  <metadata
     id="metadata13">
    <rdf:RDF>
      <cc:Work>
        <dc:format>image/svg+xml</dc:format>
        <dc:type
           rdf:resource="http://purl.org/dc/dcmitype/StillImage" />
        <cc:license
           rdf:resource="http://creativecommons.org/publicdomain/zero/1.0/" />
        <dc:publisher>
          <cc:Agent
             rdf:about="http://openclipart.org/">
            <dc:title>Openclipart</dc:title>
          </cc:Agent>
        </dc:publisher>
        <dc:title />
      </cc:Work>
      <cc:License
         rdf:about="http://creativecommons.org/publicdomain/zero/1.0/">
        <cc:permits
           rdf:resource="http://creativecommons.org/ns#Reproduction" />
        <cc:permits
           rdf:resource="http://creativecommons.org/ns#Distribution" />
        <cc:permits
           rdf:resource="http://creativecommons.org/ns#DerivativeWorks" />
      </cc:License>
    </rdf:RDF>
  </metadata>
</svg>
